<svg id="Layer_1" data-name="Layer 1" xmlns="http://www.w3.org/2000/svg" viewBox="0 0 450 438.76"><defs><style>.cls-1{fill:#3252f3;}.cls-2{fill:#f5f5f5;}</style></defs><g id="Surfaces"><g id="Drawing_Surface" data-name="Drawing Surface"><g id="Outline_no_shadow" data-name="Outline no shadow"><path class="cls-1" d="M79.69,0H370.31A79.62,79.62,0,0,1,450,79.55V359.07a79.62,79.62,0,0,1-79.55,79.69H79.69A79.62,79.62,0,0,1,0,359.21V79.69A79.62,79.62,0,0,1,79.55,0Z" transform="translate(0 0)"/></g></g></g><g id="Outlined_Mnemonics_Logos" data-name="Outlined Mnemonics Logos"><g id="Ai"><path class="cls-2" d="M218.06,263.26H148.31l-14.25,44.06a3.28,3.28,0,0,1-3.56,2.62H95.25c-2.06,0-2.63-1.12-2.06-3.38l60.38-173.81c.56-1.88,1.12-3.94,1.88-6.19a65.48,65.48,0,0,0,1.12-12.18,1.85,1.85,0,0,1,1.5-2.06h48.56c1.5,0,2.25.56,2.44,1.5l68.44,193.12c.56,2.06,0,3-1.88,3H236.44a2.84,2.84,0,0,1-3-2.06Zm-58.87-38.07h47.62c-1.12-3.94-2.62-8.62-4.31-13.5-1.69-5.06-3.38-10.5-5.06-16.12-1.88-5.81-3.56-11.44-5.44-17.25s-3.56-11.25-5.06-16.69c-1.5-5.25-2.81-10.13-4.12-14.63h-.38a232,232,0,0,1-6.38,24.19c-2.81,9-5.62,18.38-8.62,27.75C164.81,208.5,162,217.32,159.19,225.19Z" transform="translate(0 0)"/><path class="cls-2" d="M318.38,144.38a23.17,23.17,0,0,1-16.69-6.56,24.45,24.45,0,0,1-6.38-17.25,22,22,0,0,1,6.75-16.69,24,24,0,0,1,16.69-6.56c7.31,0,12.94,2.25,17.06,6.56A23.73,23.73,0,0,1,342,120.57a23.71,23.71,0,0,1-6.56,17.25A22,22,0,0,1,318.38,144.38Zm-21,162.75V162.76c0-1.88.75-2.62,2.44-2.62h37.12c1.69,0,2.44.94,2.44,2.62V307.14c0,2.06-.75,3-2.44,3H300.19C298.31,310.13,297.38,309,297.38,307.13Z" transform="translate(0 0)"/></g></g></svg>