<svg id="Vrstva_1" data-name="Vrstva 1" xmlns="http://www.w3.org/2000/svg" viewBox="0 0 437 616.77"><defs><style>.cls-1{fill:#2e00d4;}.cls-2{fill:#f5f5f5;}</style></defs><path class="cls-1" d="M39.76,567.23,0,121.23H437l-39.81,446-179,49.54Z" transform="translate(0 0)"/><path class="cls-1" d="M218.48,578.85l144.59-40.09,34-381.08H218.48Z" transform="translate(0 0)"/><path class="cls-2" d="M218.29,323.1v.06h.19v-.06Z" transform="translate(0 0)"/><polygon class="cls-2" points="355.31 212.38 354 227.06 351.52 254.79 350.42 267.08 218.48 267.08 218.48 267.1 141.09 267.1 146.09 323.1 218.29 323.1 218.29 323.16 345.45 323.16 344.12 337.85 331.26 481.85 330.44 491.1 218.3 522.17 218.3 522.13 218.23 522.15 106.17 491.05 98.51 405.16 153.42 405.16 157.32 448.78 218.24 465.23 218.48 465.17 218.48 465.21 279.3 448.8 285.65 377.8 96.06 377.8 82.62 227.08 81.31 212.4 218.29 212.4 218.29 212.38 355.31 212.38"/><path d="M40.65,0h27.8V27.46H93.84V0h27.8V83.17H93.84V55.32H68.45V83.17H40.66ZM158.24,27.58H133.77V0h76.76V27.58H186V83.17H158.2ZM222.71,0h29l17.84,29.22L287.34,0h29V83.17H288.65V42L269.52,71.57H269L249.91,42V83.22h-27.2ZM330.17,0H358V55.68h39.09V83.17h-66.9Z" transform="translate(0 0)"/></svg>