<svg id="Vrstva_1" data-name="Vrstva 1" xmlns="http://www.w3.org/2000/svg" xmlns:xlink="http://www.w3.org/1999/xlink" viewBox="0 0 454.93 405.51"><defs><style>.cls-1{fill:#cce8f0;}.cls-2{fill:#23a9c0;}.cls-3{fill:#30c0d9;}.cls-4{fill:#eaeaea;}.cls-5{fill:#fff;}.cls-6{fill:url(#Nepojmenovaný_přechod_2);}.cls-7{fill:url(#Nepojmenovaný_přechod_2-2);}.cls-8{fill:url(#Nepojmenovaný_přechod_4);}.cls-9{opacity:0.05;isolation:isolate;}.cls-10{fill:url(#Nepojmenovaný_přechod_4-2);}.cls-11,.cls-12{fill:#f5f5f5;}.cls-11{fill-rule:evenodd;}</style><linearGradient id="Nepojmenovaný_přechod_2" x1="-970.76" y1="-933.78" x2="-970.76" y2="-939.25" gradientTransform="translate(4855 4633.64) scale(4.64)" gradientUnits="userSpaceOnUse"><stop offset="0.39" stop-color="#cfd1d3" stop-opacity="0"/><stop offset="1" stop-color="#cfd1d3"/></linearGradient><linearGradient id="Nepojmenovaný_přechod_2-2" x1="-963.92" y1="-936.51" x2="-963.92" y2="-942.2" xlink:href="#Nepojmenovaný_přechod_2"/><linearGradient id="Nepojmenovaný_přechod_4" x1="-974.05" y1="-931.33" x2="-960.9" y2="-931.33" gradientTransform="translate(4855 4633.64) scale(4.64)" gradientUnits="userSpaceOnUse"><stop offset="0" stop-color="#e8e6e4"/><stop offset="1" stop-color="#fff"/></linearGradient><linearGradient id="Nepojmenovaný_přechod_4-2" x1="-974.66" y1="-940.81" x2="-960.38" y2="-940.81" xlink:href="#Nepojmenovaný_přechod_4"/></defs><circle class="cls-1" cx="218.54" cy="212.38" r="193.13"/><path class="cls-2" d="M181.06,346.49,171.39,238H277.64L268,346.47l-43.51,12.06Z" transform="translate(-72.76 -208.56)"/><path class="cls-3" d="M224.52,349.31l35.16-9.74L268,246.9H224.52Z" transform="translate(-72.76 -208.56)"/><path class="cls-4" d="M224.52,287.13h-17.6l-1.22-13.62h18.82v-13.3H191.16l.32,3.56,3.27,36.66h29.77Zm0,34.54-.06,0-14.81-4-1-10.61H195.35L197.21,328l27.25,7.57.06,0Z" transform="translate(-72.76 -208.56)"/><path d="M181.28,208.56H188v6.68h6.18v-6.68H201v20.23h-6.76V222H188v6.78h-6.76Zm28.59,6.71h-6v-6.71h18.66v6.71h-6v13.52h-6.76V215.27Zm15.68-6.71h7l4.34,7.11,4.33-7.11h7.05v20.23h-6.73v-10L236.93,226h-.12l-4.65-7.19v10h-6.61V208.56Zm26.13,0h6.76V222.1h9.5v6.69H251.68Z" transform="translate(-72.76 -208.56)"/><path class="cls-5" d="M224.47,287.13v13.3h16.38l-1.54,17.25-14.84,4v13.84L251.74,328l.2-2.24,3.13-35,.32-3.57H224.47Zm0-26.92v13.3H256.6l.27-3,.6-6.75.32-3.56Z" transform="translate(-72.76 -208.56)"/><path class="cls-2" d="M407.16,345.48,364.3,357l-42.86-11.54-9.89-107.15h105.5Z" transform="translate(-72.76 -208.56)"/><path class="cls-3" d="M364.3,247V347.82l.1,0,34.68-9.34,8-91.49Z" transform="translate(-72.76 -208.56)"/><path d="M340,222.59v-6.38h9.3v-7H333V229h16.28v-6.37Zm26-6.38h6.51v-7H356.24v7c2.18,2.18,3.32,3.22,6.47,6.37h-6.47V229h16.29v-6.37L366,216.21Zm23.08,0h6.51v-7H379.32v7c2.18,2.18,3.32,3.22,6.47,6.37h-6.47V229h16.29v-6.37l-6.51-6.38Z" transform="translate(-72.76 -208.56)"/><path class="cls-5" d="M364.26,273.8l-30.67,12.78,1,12.65,29.65-12.68,31.55-13.49,1.31-12.94L364.26,273.8Z" transform="translate(-72.76 -208.56)"/><path class="cls-6" d="M333.59,286.58l1,12.65,29.66-12.68V273.8Z" transform="translate(-72.76 -208.56)"/><path class="cls-7" d="M397.12,260.12,364.26,273.8v12.75l31.55-13.49Z" transform="translate(-72.76 -208.56)"/><path class="cls-8" d="M333.63,286.58l1,12.65,45.51.14-1,16.87-15,4.21-14.4-3.63-.87-10.47H335.52l1.75,20.21,27,8,26.9-7.86,3.49-40.12Z" transform="translate(-72.76 -208.56)"/><path class="cls-9" d="M364.26,286.58H333.59l1,12.65,29.65.09V286.58Zm0,33.83-.14,0-14.39-3.63-.88-10.47H335.48l1.74,20.21,27,8Z" transform="translate(-72.76 -208.56)"/><path class="cls-10" d="M330.83,260.12h66.29l-1.31,12.94H332.42l-1.59-12.94Z" transform="translate(-72.76 -208.56)"/><path class="cls-9" d="M364.26,260.12H330.83l1.59,12.94h31.84V260.12Z" transform="translate(-72.76 -208.56)"/><ellipse class="cls-2" cx="323.04" cy="343.76" rx="84.58" ry="44.03"/><path class="cls-11" d="M335,578.4l9.27-46.93h21.43c9.27.58,13.91,5.21,13.91,13.33,0,13.9-11,22-20.86,21.43H348.3L346,578.4Zm15.64-20.86,2.9-17.38H361c4.06,0,6.95,1.74,6.95,5.21-.58,9.85-5.21,11.59-10.42,12.17Zm26.82,8.69,9.26-46.92h11l-2.32,12.16h10.43c9.27.58,12.75,5.21,11.59,11l-4.06,23.75H401.76l4.05-21.43c.58-2.9.58-4.64-3.47-4.64h-8.69l-5.22,26.07ZM412.6,578.4l9.27-46.93H443.3c9.27.58,13.91,5.21,13.91,13.33,0,13.9-11,22-20.86,21.43H425.93l-2.32,12.17Zm15.64-20.86,2.9-17.38h7.53c4.06,0,6.95,1.74,6.95,5.21-.58,9.85-5.21,11.59-10.43,12.17Z" transform="translate(-72.76 -208.56)"/><path class="cls-3" d="M72.76,365.77H181.51V474.52H72.76Z" transform="translate(-72.76 -208.56)"/><path class="cls-12" d="M172.61,448.58c-.8-5-4-9.12-13.62-13-3.32-1.53-7-2.63-8.14-5.15a5.62,5.62,0,0,1-.2-3.18c.72-2.89,4.16-3.79,6.89-3a7.58,7.58,0,0,1,4.42,4.1c4.69-3,4.68-3,8-5.1a21,21,0,0,0-2.62-3.52c-2.83-3.15-6.67-4.77-12.82-4.65l-3.21.42a14.51,14.51,0,0,0-7.71,4.54c-5.15,5.84-3.68,16.07,2.59,20.27,6.17,4.64,15.23,5.69,16.39,10,1.13,5.3-3.9,7-8.89,6.41-3.68-.77-5.73-2.64-7.94-6l-8.26,4.77c1,2.17,2,3.15,3.7,5,7.88,8,27.59,7.6,31.13-4.49A15.11,15.11,0,0,0,172.61,448.58Zm-40.73-32.83H121.71c0,8.79,0,17.51,0,26.3,0,5.59.29,10.72-.62,12.29-1.49,3.09-5.35,2.71-7.1,2.11a8.77,8.77,0,0,1-3.76-3.9,5.24,5.24,0,0,0-.57-.93l-8.27,5.07a16.32,16.32,0,0,0,6,6.86c3.88,2.33,9.09,3,14.54,1.79a12.84,12.84,0,0,0,8.2-6.43c2.32-4.27,1.82-9.44,1.8-15.15.05-9.33,0-18.65,0-28Z" transform="translate(-72.76 -208.56)"/><path class="cls-3" d="M269,553.77A31.39,31.39,0,0,0,255.24,557c-1.42-2.83-2.85-5.29-3.08-7.13a19.53,19.53,0,0,1-.27-6,48.45,48.45,0,0,1,1.81-6.47c0-.27-.33-1.58-3.38-1.61s-5.71.6-6,1.4a34,34,0,0,0-1.28,4.54c-.53,2.79-6.12,12.68-9.29,17.88a18.25,18.25,0,0,1-2.11-5.23,19.52,19.52,0,0,1-.27-6,48.93,48.93,0,0,1,1.81-6.47c0-.27-.32-1.57-3.38-1.6s-5.7.59-6,1.39-.62,2.71-1.28,4.55-8,18.35-10,22.65c-1,2.2-1.85,4-2.47,5.14s0,.09-.09.21l-.83,1.57v0c-.42.74-.86,1.46-1.07,1.46s-.44-2,.06-4.73c1.1-5.73,3.77-14.66,3.74-15,0-.15.51-1.72-1.72-2.52a2.7,2.7,0,0,0-3.12.53c-.18,0-.32.48-.32.48s2.4-10.07-4.61-10.07c-4.39,0-10.45,4.78-13.45,9.15-1.9,1-5.94,3.23-10.21,5.58-1.64.89-3.33,1.84-4.93,2.7l-.33-.36c-8.49-9-24.2-15.47-23.55-27.64.24-4.43,1.79-16.1,30.17-30.23,23.25-11.58,41.87-8.4,45.11-1.34,4.6,10.1-10,28.87-34.12,31.57-9.21,1-14.05-2.53-15.26-3.86s-1.46-1.46-1.93-1.19c-.77.42-.3,1.66,0,2.41.71,1.87,3.68,5.19,8.73,6.85,4.42,1.46,15.23,2.26,28.3-2.79,14.63-5.67,26.07-21.41,22.71-34.56C230,488.89,207.74,484.49,186.74,492c-12.5,4.45-26,11.4-35.78,20.51-11.58,10.81-13.42,20.26-12.65,24.18,2.7,14,22,23.1,29.7,29.84-.39.2-.75.41-1.07.59-3.86,1.9-18.56,9.59-22.24,17.73-4.16,9.2.65,15.83,3.86,16.72,9.91,2.76,20.07-2.2,25.56-10.37s4.81-18.76,2.29-23.6l-.09-.18,3-1.78c2-1.16,3.89-2.23,5.58-3.15a37.07,37.07,0,0,0-2,10.09c-.41,5.23,1.72,12,4.54,14.67a5,5,0,0,0,3.66,1.19c3.26,0,4.75-2.7,6.38-5.94,2-4,3.8-8.52,3.8-8.52s-2.23,12.38,3.86,12.38c2.23,0,4.46-2.88,5.47-4.36v0l.17-.3a6.65,6.65,0,0,0,.36-.56v-.06c.89-1.55,2.88-5.08,5.85-10.93,3.83-7.54,7.51-17,7.51-17a54.62,54.62,0,0,0,1.46,6.12,58,58,0,0,0,3.17,7.13c-.89,1.25-1.42,2-1.42,2l0,0c-.71,1-1.52,2-2.35,3-3,3.62-6.65,7.75-7.12,8.94-.57,1.39-.45,2.43.65,3.26a6,6,0,0,0,3.74.6,16.83,16.83,0,0,0,5.58-1.28,19.33,19.33,0,0,0,4.81-2.53,10.72,10.72,0,0,0,4.61-9.47,19.13,19.13,0,0,0-1.76-6.68c.27-.38.54-.77.81-1.19a125.32,125.32,0,0,0,8.31-14.4,54.62,54.62,0,0,0,1.46,6.12,42.48,42.48,0,0,0,2.7,6.12c-4.4,3.59-7.16,7.75-8.11,10.48-1.75,5-.39,7.33,2.2,7.87a8,8,0,0,0,4.07-.83,18.51,18.51,0,0,0,5.13-2.65c3-2.19,5.82-5.25,5.67-9.38a17.78,17.78,0,0,0-1.27-5.55,28.88,28.88,0,0,1,14.73-1.7c13.21,1.55,15.82,9.8,15.32,13.25a8.92,8.92,0,0,1-4.19,5.94c-.92.56-1.22.77-1.13,1.18.12.63.54.6,1.34.48,1.1-.18,6.95-2.82,7.18-9.18.36-8.16-7.39-17.07-21.14-17ZM167.11,588.12c-4.36,4.78-10.51,6.6-13.12,5-2.82-1.63-1.72-8.67,3.65-13.75A70.78,70.78,0,0,1,168,571.73l2.7-1.63.29-.18.69-.41a18.91,18.91,0,0,1-4.52,18.61ZM199,566.42c-1.51,3.71-4.72,13.24-6.65,12.71-1.66-.45-2.67-7.66-.32-14.79a32.93,32.93,0,0,1,5.19-9.53c2.41-2.67,5-3.57,5.67-2.47C203.7,553.77,200,564.1,199,566.42ZM225.37,579c-.65.33-1.24.56-1.51.38s.27-.56.27-.56,3.29-3.53,4.6-5.17c.74-.95,1.63-2,2.58-3.29v.35c0,4.28-4.1,7.13-5.94,8.29Zm20.31-4.63c-.47-.36-.41-1.46,1.19-4.9a18.22,18.22,0,0,1,4.51-5.82,7.27,7.27,0,0,1,.45,2.55C251.8,571.56,248,573.54,245.68,574.38Z" transform="translate(-72.76 -208.56)"/><path class="cls-2" d="M527.69,416c0-10.12-12.67-19.71-32.09-25.65,4.48-19.8,2.49-35.56-6.29-40.6a13.67,13.67,0,0,0-7-1.74V355a7.16,7.16,0,0,1,3.54.81c4.24,2.43,6.08,11.67,4.64,23.57-.34,2.92-.9,6-1.58,9.15a150.77,150.77,0,0,0-19.77-3.4,154.08,154.08,0,0,0-12.95-15.56c10.15-9.43,19.67-14.6,26.15-14.6V348c-8.56,0-19.77,6.1-31.1,16.68-11.34-10.52-22.54-16.56-31.1-16.56v6.94c6.44,0,16,5.14,26.15,14.51a148.06,148.06,0,0,0-12.86,15.53,144.94,144.94,0,0,0-19.8,3.43,91.27,91.27,0,0,1-1.62-9c-1.46-11.89.34-21.14,4.55-23.6a6.9,6.9,0,0,1,3.58-.81v-6.94a13.83,13.83,0,0,0-7,1.75c-8.75,5-10.71,20.76-6.19,40.5-19.37,6-32,15.53-32,25.62s12.67,19.7,32.1,25.65c-4.48,19.8-2.49,35.55,6.29,40.6a13.7,13.7,0,0,0,7,1.74c8.56,0,19.77-6.1,31.1-16.69,11.34,10.52,22.54,16.56,31.1,16.56a13.93,13.93,0,0,0,7-1.74c8.75-5,10.71-20.76,6.19-40.5,19.31-5.95,31.91-15.54,31.91-25.62Zm-40.53-20.77c-1.15,4-2.58,8.16-4.2,12.3-1.28-2.49-2.62-5-4.08-7.47s-3-4.92-4.48-7.29c4.42.66,8.68,1.47,12.76,2.46ZM472.9,428.4c-2.43,4.2-4.92,8.19-7.5,11.89-4.64.41-9.34.62-14.07.62s-9.4-.21-14-.59c-2.58-3.7-5.11-7.66-7.53-11.83s-4.52-8.22-6.48-12.39c1.93-4.17,4.11-8.34,6.44-12.42s4.92-8.19,7.51-11.89c4.64-.41,9.34-.62,14.07-.62s9.4.21,14,.59c2.58,3.7,5.1,7.66,7.53,11.83s4.52,8.22,6.48,12.39c-2,4.17-4.11,8.34-6.45,12.42Zm10.06-4c1.68,4.17,3.11,8.34,4.29,12.39-4.07,1-8.37,1.84-12.82,2.49,1.52-2.4,3.05-4.85,4.48-7.38s2.77-5,4-7.5Zm-31.57,33.22a129.23,129.23,0,0,1-8.65-10c2.8.12,5.66.21,8.56.21s5.82-.06,8.65-.21A120.6,120.6,0,0,1,451.39,457.57Zm-23.16-18.34c-4.42-.65-8.69-1.46-12.76-2.46,1.15-4,2.58-8.15,4.2-12.29,1.27,2.49,2.61,5,4.08,7.47S426.7,436.87,428.23,439.23Zm23-64.78a129.23,129.23,0,0,1,8.65,10c-2.8-.12-5.67-.22-8.56-.22s-5.82.06-8.66.22A122.6,122.6,0,0,1,451.24,374.45Zm-23,18.33c-1.53,2.4-3.05,4.86-4.48,7.38s-2.78,5-4.05,7.47c-1.68-4.17-3.11-8.34-4.3-12.39,4.08-1,8.38-1.8,12.83-2.46Zm-28.18,39c-11-4.7-18.14-10.86-18.14-15.75S389,404.93,400,400.26c2.68-1.16,5.61-2.18,8.63-3.15a149.89,149.89,0,0,0,7,19,147.85,147.85,0,0,0-6.91,18.87c-3.08-1-6-2-8.72-3.18Zm16.75,44.49c-4.23-2.43-6.07-11.68-4.64-23.57.35-2.93.91-6,1.59-9.15a152.19,152.19,0,0,0,19.77,3.39,151.83,151.83,0,0,0,12.95,15.57c-10.15,9.43-19.67,14.6-26.15,14.6a7.44,7.44,0,0,1-3.52-.84Zm73.85-23.73c1.46,11.9-.35,21.14-4.55,23.6a6.93,6.93,0,0,1-3.58.81c-6.44,0-16-5.13-26.15-14.51a146,146,0,0,0,12.86-15.53,146.8,146.8,0,0,0,19.8-3.42A90.8,90.8,0,0,1,490.62,452.52Zm12-20.76c-2.68,1.15-5.6,2.18-8.62,3.14A149.32,149.32,0,0,0,487,416a148,148,0,0,0,6.92-18.87c3.08,1,6,2,8.74,3.18,11,4.7,18.15,10.86,18.15,15.75s-7.16,11.08-18.18,15.75Z" transform="translate(-72.76 -208.56)"/><circle class="cls-2" cx="378.53" cy="207.45" r="14.23"/></svg>