<svg id="Vrstva_1" data-name="Vrstva 1" xmlns="http://www.w3.org/2000/svg" viewBox="0 0 404.08 359.85"><defs><style>.cls-1{fill:#2e00d4;}</style></defs><path class="cls-1" d="M497.75,362c0-26.77-33.53-52.14-84.92-67.87,11.86-52.39,6.59-94.06-16.64-107.41a36.09,36.09,0,0,0-18.45-4.61v18.37a19.06,19.06,0,0,1,9.39,2.14c11.2,6.43,16.06,30.89,12.27,62.35-.9,7.74-2.39,15.9-4.2,24.22a396.89,396.89,0,0,0-52.3-9A401.17,401.17,0,0,0,308.64,239c26.85-25,52.05-38.63,69.18-38.63V182c-22.65,0-52.3,16.14-82.28,44.15-30-27.84-59.63-43.82-82.28-43.82V200.7c17.05,0,42.34,13.59,69.19,38.38a388.6,388.6,0,0,0-34,41.1,382.92,382.92,0,0,0-52.38,9.06c-1.9-8.24-3.3-16.23-4.29-23.89-3.87-31.46.91-55.92,12-62.43a18.34,18.34,0,0,1,9.47-2.14V182.41A36.69,36.69,0,0,0,194.65,187C171.5,200.37,166.31,242,178.26,294.18,127,310,93.67,335.28,93.67,362s33.52,52.13,84.91,67.86c-11.86,52.39-6.58,94.06,16.64,107.41a36.23,36.23,0,0,0,18.53,4.61c22.65,0,52.31-16.14,82.29-44.15,30,27.84,59.63,43.82,82.28,43.82a36.69,36.69,0,0,0,18.61-4.61c23.15-13.35,28.34-54.94,16.39-107.16,51.07-15.73,84.43-41.1,84.43-67.78ZM390.51,307c-3.05,10.62-6.84,21.58-11.12,32.53C376,333,372.47,326.38,368.6,319.8s-7.83-13-11.86-19.28c11.69,1.73,23,3.87,33.77,6.51Zm-37.72,87.72c-6.43,11.12-13,21.66-19.85,31.46-12.28,1.07-24.71,1.65-37.23,1.65s-24.88-.58-37.07-1.57c-6.83-9.8-13.51-20.26-19.93-31.3-6.26-10.79-11.94-21.74-17.13-32.78,5.11-11,10.87-22.07,17-32.86,6.42-11.12,13-21.66,19.85-31.46,12.27-1.07,24.71-1.65,37.23-1.65s24.87.58,37.06,1.56Q343,312.52,352.7,329.1c6.26,10.79,11.95,21.75,17.13,32.78-5.18,11-10.87,22.08-17,32.87ZM379.39,384c4.45,11,8.24,22.07,11.36,32.78-10.78,2.64-22.15,4.86-33.93,6.59,4-6.34,8.07-12.85,11.86-19.52S376,390.63,379.39,384Zm-83.52,87.88A339.87,339.87,0,0,1,273,445.57c7.42.33,15,.57,22.65.57s15.41-.16,22.9-.57A320.28,320.28,0,0,1,295.87,471.92Zm-61.28-48.51c-11.69-1.73-23-3.87-33.77-6.51,3.05-10.62,6.84-21.58,11.12-32.53,3.38,6.59,6.92,13.18,10.79,19.77S230.56,417.15,234.59,423.41ZM295.46,252a340.09,340.09,0,0,1,22.9,26.36c-7.42-.33-15-.58-22.65-.58s-15.41.16-22.9.58A320.48,320.48,0,0,1,295.46,252Zm-60.95,48.51c-4,6.34-8.07,12.85-11.86,19.52s-7.33,13.18-10.71,19.77c-4.45-11-8.23-22.07-11.36-32.78,10.79-2.55,22.15-4.78,33.93-6.51ZM160,403.64c-29.16-12.43-48-28.74-48-41.67s18.86-29.33,48-41.68c7.08-3.05,14.83-5.77,22.82-8.32a394.77,394.77,0,0,0,18.53,50.16A389.25,389.25,0,0,0,183,412c-8.15-2.55-15.89-5.35-23.06-8.4Zm44.31,117.7c-11.2-6.42-16.06-30.89-12.27-62.35.91-7.74,2.39-15.9,4.2-24.21a398.58,398.58,0,0,0,52.3,9,401.16,401.16,0,0,0,34.27,41.19c-26.86,24.95-52.06,38.62-69.19,38.62a19.63,19.63,0,0,1-9.31-2.22Zm195.37-62.76c3.87,31.46-.91,55.92-12,62.43a18.41,18.41,0,0,1-9.48,2.14c-17,0-42.33-13.59-69.18-38.38a388.55,388.55,0,0,0,34-41.1,384.61,384.61,0,0,0,52.39-9.06A232.86,232.86,0,0,1,399.65,458.58Zm31.71-54.94c-7.08,3.05-14.83,5.77-22.81,8.32A397,397,0,0,0,390,361.8a389.25,389.25,0,0,0,18.29-49.91c8.15,2.55,15.89,5.35,23.14,8.4,29.16,12.44,48,28.74,48,41.68s-18.94,29.32-48.1,41.67Z" transform="translate(-93.67 -182)"/><circle class="cls-1" cx="201.96" cy="179.97" r="37.64"/></svg>