<svg id="Vrstva_1" data-name="Vrstva 1" xmlns="http://www.w3.org/2000/svg" viewBox="0 0 404.08 359.89"><defs><style>.cls-1{fill:#3252f3;}</style></defs><path class="cls-1" d="M404.08,180c0-26.77-33.53-52.14-84.92-67.87C331,59.74,325.75,18.07,302.52,4.72A36.09,36.09,0,0,0,284.07.11V18.48a19,19,0,0,1,9.39,2.14c11.2,6.43,16.06,30.89,12.27,62.35-.9,7.74-2.39,15.9-4.2,24.22a397.54,397.54,0,0,0-52.3-9A400.27,400.27,0,0,0,215,57c26.85-25,52-38.63,69.18-38.63V0c-22.65,0-52.3,16.14-82.28,44.15C171.87,16.31,142.24.33,119.59.33V18.7c17,0,42.34,13.59,69.19,38.38a389.69,389.69,0,0,0-34,41.1,382.42,382.42,0,0,0-52.38,9.06C100.5,99,99.1,91,98.11,83.35c-3.87-31.46.91-55.92,12-62.43a18.36,18.36,0,0,1,9.47-2.14V.41A36.72,36.72,0,0,0,101,5C77.83,18.37,72.64,60,84.59,112.18,33.33,128,0,153.28,0,180s33.52,52.13,84.91,67.86c-11.86,52.39-6.58,94.06,16.64,107.41a36.16,36.16,0,0,0,18.53,4.61c22.65,0,52.31-16.14,82.29-44.15,30,27.84,59.63,43.82,82.28,43.82a36.7,36.7,0,0,0,18.61-4.61c23.15-13.35,28.34-54.94,16.39-107.16C370.72,232.05,404.08,206.68,404.08,180ZM296.84,125c-3,10.62-6.84,21.58-11.12,32.53-3.39-6.53-6.92-13.15-10.79-19.73s-7.83-13-11.86-19.28c11.69,1.73,23,3.87,33.77,6.51Zm-37.72,87.72c-6.43,11.12-13,21.66-19.85,31.46-12.28,1.07-24.71,1.65-37.23,1.65s-24.88-.58-37.07-1.57C158.14,234.46,151.46,224,145,213c-6.26-10.79-11.94-21.74-17.13-32.78,5.11-11,10.87-22.07,17-32.86,6.42-11.12,13-21.66,19.85-31.46,12.27-1.07,24.71-1.65,37.23-1.65s24.87.58,37.06,1.56q10.27,14.74,20,31.33c6.26,10.79,12,21.75,17.13,32.78-5.18,11-10.87,22.08-17,32.87ZM285.72,202a345.48,345.48,0,0,1,11.36,32.78c-10.78,2.64-22.15,4.86-33.93,6.59,4-6.34,8.07-12.85,11.86-19.52S282.33,208.63,285.72,202ZM202.2,289.88a338.49,338.49,0,0,1-22.87-26.31c7.42.33,15,.57,22.65.57s15.41-.16,22.9-.57a321.29,321.29,0,0,1-22.68,26.35Zm-61.28-48.51c-11.69-1.73-23-3.87-33.77-6.51,3-10.62,6.84-21.58,11.12-32.53,3.38,6.59,6.92,13.18,10.79,19.77s7.83,13.05,11.86,19.31ZM201.79,70a341.48,341.48,0,0,1,22.9,26.36c-7.42-.33-15-.58-22.65-.58s-15.41.16-22.9.58A321.06,321.06,0,0,1,201.79,70Zm-60.95,48.51c-4,6.34-8.07,12.85-11.86,19.52s-7.33,13.18-10.71,19.77c-4.45-11-8.23-22.07-11.36-32.78,10.79-2.55,22.15-4.78,33.93-6.51ZM66.33,221.64c-29.16-12.43-48-28.74-48-41.67s18.86-29.33,48-41.68c7.08-3,14.83-5.77,22.82-8.32a395.77,395.77,0,0,0,18.53,50.16A388.38,388.38,0,0,0,89.33,230c-8.15-2.55-15.89-5.35-23.06-8.4Zm44.31,117.7c-11.2-6.42-16.06-30.89-12.27-62.35.91-7.74,2.39-15.9,4.2-24.21a397.54,397.54,0,0,0,52.3,9A400.37,400.37,0,0,0,189.14,303c-26.86,24.95-52.06,38.62-69.19,38.62a19.58,19.58,0,0,1-9.31-2.22ZM306,276.58c3.87,31.46-.91,55.92-12,62.43a18.4,18.4,0,0,1-9.48,2.14c-17,0-42.33-13.59-69.18-38.38a388.68,388.68,0,0,0,34-41.1,385.64,385.64,0,0,0,52.39-9.06,231.63,231.63,0,0,1,4.24,24Zm31.71-54.94c-7.08,3.05-14.83,5.77-22.81,8.32a397.57,397.57,0,0,0-18.58-50.16,388.62,388.62,0,0,0,18.29-49.91c8.15,2.55,15.89,5.35,23.14,8.4,29.16,12.44,48,28.74,48,41.68s-18.94,29.32-48.1,41.67Z" transform="translate(0 0)"/><circle class="cls-1" cx="201.96" cy="179.97" r="37.64"/></svg>