<svg id="Layer_1" data-name="Layer 1" xmlns="http://www.w3.org/2000/svg" viewBox="0 0 712.5 694.68"><defs><style>.cls-1{fill:#2e00d4;}.cls-2{fill:#f5f5f5;}</style></defs><path class="cls-1" d="M586.33,694.68H126.17A126.06,126.06,0,0,1,0,568.73V126.17A126.06,126.06,0,0,1,126,0H586.33A126.06,126.06,0,0,1,712.5,126V568.51a126.06,126.06,0,0,1-126,126.17Z" transform="translate(0 0)"/><path class="cls-1" d="M575,665H137.46A108,108,0,0,1,29.7,557.23V137.45A108,108,0,0,1,137.46,29.69h437.3A107.75,107.75,0,0,1,682.52,137.43V556.94A107.6,107.6,0,0,1,575.37,665Z" transform="translate(0 0)"/><path class="cls-2" d="M294.83,333.33,378,493.05c1.48,2.36.6,4.76-1.8,4.76H324.5c-3.28,0-4.76-.89-6.24-3.85-19-39.19-38.3-78.38-58.2-120.53h-.6c-17.81,39.79-37.42,81.65-56.4,120.84-1.48,2.37-3,3.28-5.36,3.28H148.77c-3,0-3.28-2.37-1.77-4.16l81.34-155L149.68,181.64c-1.79-2.37,0-4.17,1.77-4.17h51.07c3,0,4.16.6,5.33,3.28,18.7,39.19,37.71,79.57,55.52,119h.6c17.21-39.19,36.22-79.86,54.63-118.76,1.48-2.37,2.37-3.85,5.36-3.85h47.79c2.37,0,3.28,1.79,1.8,4.16Zm97.7,48.4c0-69.17,46-123.21,119-123.21a128.5,128.5,0,0,1,15.45.6V180.46a3,3,0,0,1,3-3h46.91c2.36,0,3,.89,3,2.37V452.38a212.59,212.59,0,0,0,1.48,29.09c0,1.8-.6,2.37-2.36,3.28A176.59,176.59,0,0,1,503,502c-64.44.25-110.47-39.51-110.44-120.27Zm134.46-76a44.66,44.66,0,0,0-17.21-3c-37.42,0-63.53,28.79-63.53,76.61C446.25,434,473,456,506.53,456c7.13,0,14.85-.89,20.49-3.28v-147Z" transform="translate(0 0)"/></svg>